{"title":"Taking Woodstock [2009] DVDRip x264","uid":12413239,"size":1181830073,"categoryP":"video","categoryS":"movies","magnet":"?xt=urn:btih:a28c37208cdc68c89629826153bcefd8ec00b3b5&amp;dn=Taking+Woodstock+%5B2009%5D+DVDRip+x264&amp;tr=udp%3A%2F%2Ftracker.openbittorrent.com%3A80&amp;tr=udp%3A%2F%2Fopen.demonii.com%3A1337&amp;tr=udp%3A%2F%2Ftracker.coppersurfer.tk%3A6969&amp;tr=udp%3A%2F%2Fexodus.desync.com%3A6969","seeders":0,"leechers":0,"uploader":null,"files":1,"time":1442181780,"description":"If you enjoyed this rip please rate, comment, and seed.\nTorrents are a peer to peer file sharing system that rely on users like yourself to make content freely available.\nWhen you don't share, you are hurting the torrent community and making files unavailable to other users.\n\nFormat : MPEG-4\nFormat profile : Base Media / Version 2\nCodec ID : mp42\nFile size : 1.10 GiB\nDuration : 2h 0mn\nOverall bit rate mode : Variable\nOverall bit rate : 1 307 Kbps\nEncoded date : UTC 2036-02-06 06:28:16\nTagged date : UTC 2036-02-06 06:28:16\nWriting application : HandBrake 0.10.2 2015060900\n\nVideo\nID : 1\nFormat : AVC\nFormat/Info : Advanced Video Codec\nFormat profile : High@L3\nFormat settings, CABAC : Yes\nFormat settings, ReFrames : 4 frames\nCodec ID : avc1\nCodec ID/Info : Advanced Video Coding\nDuration : 2h 0mn\nBit rate : 800 Kbps\nWidth : 720 pixels\nHeight : 480 pixels\nDisplay aspect ratio : 16:9\nOriginal display aspect ratio : 16:9\nFrame rate mode : Variable\nFrame rate : 23.976 fps\nMinimum frame rate : 19.978 fps\nMaximum frame rate : 29.970 fps\nColor space : YUV\nChroma subsampling : 4:2:0\nBit depth : 8 bits\nScan type : Progressive\nBits/(Pixel*Frame) : 0.097\nStream size : 690 MiB (61%)\nWriting library : x264 core 142 r2479 dd79a61\nEncoding settings : cabac=1 / ref=3 / deblock=1:0:0 / analyse=0x3:0x113 / me=hex / subme=7 / psy=1 / psy_rd=1.00:0.00 / mixed_ref=1 / me_range=16 / chroma_me=1 / trellis=1 / 8x8dct=1 / cqm=0 / deadzone=21,11 / fast_pskip=1 / chroma_qp_offset=-2 / threads=6 / lookahead_threads=1 / sliced_threads=0 / nr=0 / decimate=1 / interlaced=0 / bluray_compat=0 / constrained_intra=0 / bframes=3 / b_pyramid=2 / b_adapt=1 / b_bias=0 / direct=1 / weightb=1 / open_gop=0 / weightp=2 / keyint=240 / keyint_min=24 / scenecut=40 / intra_refresh=0 / rc_lookahead=40 / rc=2pass / mbtree=1 / bitrate=800 / ratetol=1.0 / qcomp=0.60 / qpmin=0 / qpmax=69 / qpstep=4 / cplxblur=20.0 / qblur=0.5 / ip_ratio=1.40 / aq=1:1.00\nEncoded date : UTC 2036-02-06 06:28:16\nTagged date : UTC 2036-02-06 06:28:16\nColor range : Limited\nColor primaries : BT.601 NTSC\nTransfer characteristics : BT.709\nMatrix coefficients : BT.601\n\nAudio #1\nID : 2\nFormat : AAC\nFormat/Info : Advanced Audio Codec\nFormat profile : LC\nCodec ID : 40\nDuration : 2h 0mn\nBit rate mode : Variable\nBit rate : 160 Kbps\nChannel(s) : 2 channels\nChannel(s)_Original : 6 channels\nChannel positions : Front: L C R, Side: L R, LFE\nSampling rate : 48.0 KHz\nCompression mode : Lossy\nStream size : 138 MiB (12%)\nTitle : Surround / Surround\nLanguage : English\nEncoded date : UTC 2036-02-06 06:28:16\nTagged date : UTC 2036-02-06 06:28:16\n\nAudio #2\nID : 3\nFormat : AAC\nFormat/Info : Advanced Audio Codec\nFormat profile : LC\nCodec ID : 40\nDuration : 2h 0mn\nBit rate mode : Variable\nBit rate : 160 Kbps\nChannel(s) : 2 channels\nChannel(s)_Original : 6 channels\nChannel positions : Front: L C R, Side: L R, LFE\nSampling rate : 48.0 KHz\nCompression mode : Lossy\nStream size : 138 MiB (12%)\nTitle : Surround / Surround\nLanguage : Spanish\nEncoded date : UTC 2036-02-06 06:28:16\nTagged date : UTC 2036-02-06 06:28:16\n\nAudio #3\nID : 4\nFormat : AAC\nFormat/Info : Advanced Audio Codec\nFormat profile : LC\nCodec ID : 40\nDuration : 2h 0mn\nBit rate mode : Variable\nBit rate : 160 Kbps\nChannel(s) : 2 channels\nChannel(s)_Original : 6 channels\nChannel positions : Front: L C R, Side: L R, LFE\nSampling rate : 48.0 KHz\nCompression mode : Lossy\nStream size : 138 MiB (12%)\nTitle : Surround / Surround\nLanguage : French\nEncoded date : UTC 2036-02-06 06:28:16\nTagged date : UTC 2036-02-06 06:28:16\n\nText #1\nID : 5\nFormat : mp4s\nCodec ID : E0\nDuration : 1h 55mn\nBit rate mode : Variable\nBit rate : 5 088 bps\nStream size : 4.20 MiB (0%)\nLanguage : English\nEncoded date : UTC 2036-02-06 06:28:16\nTagged date : UTC 2036-02-06 06:28:16\n\nText #2\nID : 6\nFormat : mp4s\nCodec ID : E0\nDuration : 1h 54mn\nBit rate mode : Variable\nBit rate : 4 328 bps\nStream size : 3.54 MiB (0%)\nLanguage : Spanish\nEncoded date : UTC 2036-02-06 06:28:16\nTagged date : UTC 2036-02-06 06:28:16\n\nText #3\nID : 7\nFormat : mp4s\nCodec ID : E0\nDuration : 1h 54mn\nBit rate mode : Variable\nBit rate : 4 475 bps\nStream size : 3.66 MiB (0%)\nLanguage : French\nEncoded date : UTC 2036-02-06 06:28:16\nTagged date : UTC 2036-02-06 06:28:16\n\nText #4\nID : 8\nFormat : mp4s\nCodec ID : E0\nDuration : 1h 52mn\nBit rate mode : Variable\nBit rate : 68 bps\nStream size : 55.5 KiB (0%)\nLanguage : Spanish\nEncoded date : UTC 2036-02-06 06:28:16\nTagged date : UTC 2036-02-06 06:28:16\n\nText #5\nID : 9\nFormat : mp4s\nCodec ID : E0\nDuration : 1h 52mn\nBit rate mode : Variable\nBit rate : 92 bps\nStream size : 75.2 KiB (0%)\nLanguage : French\nEncoded date : UTC 2036-02-06 06:28:16\nTagged date : UTC 2036-02-06 06:28:16\n\nMenu\nID : 10\nCodec ID : text\nDuration : 2h 0mn\nLanguage : English\nEncoded date : UTC 2036-02-06 06:28:16\nTagged date : UTC 2036-02-06 06:28:16\n00:00:00.000 : Chapter 1\n00:06:44.688 : Chapter 2\n00:12:28.197 : Chapter 3\n00:18:26.889 : Chapter 4\n00:23:46.709 : Chapter 5\n00:29:27.382 : Chapter 6\n00:35:36.384 : Chapter 7\n00:41:41.449 : Chapter 8\n00:48:11.172 : Chapter 9\n00:51:04.812 : Chapter 10\n00:57:39.906 : Chapter 11\n01:04:55.008 : Chapter 12\n01:09:53.139 : Chapter 13\n01:15:09.755 : Chapter 14\n01:21:50.189 : Chapter 15\n01:30:09.287 : Chapter 16\n01:35:22.300 : Chapter 17\n01:41:25.696 : Chapter 18\n01:47:12.710 : Chapter 19\n01:54:14.464 : Chapter 20\nBit rate mode : VBR","torrent":{"xt":"urn:btih:a28c37208cdc68c89629826153bcefd8ec00b3b5","amp;dn":"Taking+Woodstock+%5B2009%5D+DVDRip+x264","amp;tr":["udp%3A%2F%2Ftracker.openbittorrent.com%3A80","udp%3A%2F%2Fopen.demonii.com%3A1337","udp%3A%2F%2Ftracker.coppersurfer.tk%3A6969","udp%3A%2F%2Fexodus.desync.com%3A6969"],"infoHash":"a28c37208cdc68c89629826153bcefd8ec00b3b5","infoHashBuffer":{"type":"Buffer","data":[162,140,55,32,140,220,104,200,150,41,130,97,83,188,239,216,236,0,179,181]},"announce":[],"urlList":[]}}